<svg width="32" height="37" viewBox="0 0 32 37" fill="none" xmlns="http://www.w3.org/2000/svg">
<path id="Vector" fill-rule="evenodd" clip-rule="evenodd" d="M18.707 36.9986C22.1783 37.0612 25.3804 34.9765 27.7925 32.5155C29.9555 30.3087 30.6071 27.209 31.2457 24.206C31.8173 21.5178 31.3406 18.9136 31.2688 16.1679C31.1593 11.9736 33.3055 7.23059 30.7153 3.90088C28.088 0.523373 23.0225 -0.130116 18.707 0.0195837C14.4851 0.166036 10.5115 2.01091 7.29757 4.71321C4.25774 7.26916 2.47441 10.8528 1.33399 14.6272C0.218358 18.3195 -0.789022 22.4184 0.897865 25.8938C2.52096 29.2377 6.68146 30.2104 9.85985 32.1922C12.7769 34.0112 15.2557 36.9364 18.707 36.9986Z" fill="#FF9E00" fill-opacity="0.33"/>
</svg>
