<svg width="36" height="36" viewBox="0 0 36 36" fill="none" xmlns="http://www.w3.org/2000/svg">
<path d="M32.4 12.6C32.4014 10.3475 31.5582 8.17628 30.0367 6.51523C28.5153 4.85418 26.4263 3.82403 24.1823 3.62823C21.9383 3.43243 19.7025 4.08522 17.9163 5.45767C16.1302 6.83012 14.9237 8.82245 14.535 11.0412C13.7664 13.7286 13.0356 15.1488 12.654 15.7752L9.26278 19.1628C9.13659 19.2887 9.05061 19.4492 9.01575 19.624C8.98089 19.7988 8.99872 19.98 9.06697 20.1446C9.13522 20.3093 9.25083 20.45 9.39913 20.5488C9.54743 20.6477 9.72174 20.7003 9.89998 20.7H10.6002L6.99478 24.3054C6.26956 24.3468 5.57383 24.6066 4.99899 25.0506C4.42415 25.4947 3.99709 26.1023 3.77394 26.7936C3.55079 27.4849 3.54197 28.2275 3.74865 28.9238C3.95533 29.6202 4.36784 30.2378 4.93198 30.6954C5.06878 30.807 5.19298 30.9312 5.30458 31.068C5.76335 31.633 6.38262 32.0458 7.08072 32.2517C7.77881 32.4577 8.52294 32.4472 9.21496 32.2217C9.90698 31.9961 10.5144 31.5661 10.9571 30.9884C11.3997 30.4106 11.6569 29.7123 11.6946 28.9854L15.3 25.3836V26.1018C15.2997 26.28 15.3523 26.4543 15.4511 26.6026C15.55 26.7509 15.6907 26.8665 15.8553 26.9348C16.02 27.003 16.2012 27.0209 16.376 26.986C16.5508 26.9512 16.7113 26.8652 16.8372 26.739L20.205 23.3694C20.826 22.9878 22.2822 22.2336 25.0812 21.4434C25.506 21.3642 25.9218 21.2544 26.3232 21.1158C26.559 21.0546 26.784 20.9718 26.9892 20.8566C28.5973 20.157 29.9661 19.0029 30.9273 17.5361C31.8885 16.0693 32.4004 14.3537 32.4 12.6ZM15.3 22.8366L10.2888 27.846C10.1644 27.9716 10.066 28.1205 9.99925 28.2842C9.93253 28.4479 9.8988 28.6232 9.89998 28.8C9.90017 29.1721 9.78502 29.5351 9.57039 29.8391C9.35575 30.1431 9.05218 30.3731 8.70145 30.4974C8.35073 30.6218 7.97008 30.6343 7.61191 30.5334C7.25373 30.4325 6.93563 30.2231 6.70138 29.934C6.51194 29.7009 6.29902 29.488 6.06598 29.2986C5.77685 29.0643 5.56742 28.7462 5.46652 28.3881C5.36562 28.0299 5.3782 27.6492 5.50255 27.2985C5.62689 26.9478 5.85688 26.6442 6.16086 26.4296C6.46484 26.2149 6.82786 26.0998 7.19998 26.1C7.37118 26.1007 7.54085 26.0677 7.69929 26.0029C7.85773 25.938 8.00184 25.8426 8.12338 25.722L13.1454 20.7H15.3V22.8366ZM23.4 5.39999C25.059 5.39931 26.6674 5.97158 27.9531 7.02004C29.2389 8.0685 30.1231 9.52881 30.4562 11.154C30.7894 12.7793 30.5511 14.4697 29.7816 15.9395C29.0121 17.4093 27.7587 18.5682 26.2332 19.2204C26.1992 19.2352 26.1661 19.252 26.1342 19.2708C26.05 19.3174 25.9597 19.3519 25.866 19.3734L25.848 19.377C25.4526 19.52 25.0455 19.6278 24.6312 19.6992C21.5424 20.5668 19.9062 21.4236 19.1592 21.8988C19.1031 21.9343 19.0512 21.976 19.0044 22.023L17.1 23.9274V19.9062C17.1002 19.7879 17.0771 19.6708 17.032 19.5614C16.9869 19.4521 16.9207 19.3527 16.8372 19.269L16.7292 19.1628C16.5605 18.9945 16.332 18.9 16.0938 18.9H12.0726L13.9986 16.974C14.0463 16.9267 14.0886 16.8741 14.1246 16.8174C14.598 16.0668 15.4332 14.4648 16.2792 11.4894C16.2882 11.4574 16.2954 11.425 16.3008 11.3922C16.3862 10.8848 16.5262 10.3881 16.7184 9.91079C17.2552 8.57825 18.1782 7.4367 19.3689 6.63288C20.5595 5.82906 21.9634 5.3997 23.4 5.39999Z" fill="#212427"/>
</svg>
