<svg width="36" height="36" viewBox="0 0 36 36" fill="none" xmlns="http://www.w3.org/2000/svg">
<g id="ph:hamburger-light">
<path id="Vector" d="M4.22901 10.6875H26.7093C27.0047 10.6893 27.2967 10.6246 27.5637 10.4982C27.8306 10.3718 28.0658 10.187 28.2516 9.95742C28.4374 9.72782 28.5692 9.45935 28.6372 9.1719C28.7052 8.88445 28.7076 8.58539 28.6443 8.29688C27.6262 3.49172 22.0856 0 15.4692 0C8.85276 0 3.31214 3.49172 2.29401 8.29688C2.23071 8.58539 2.23314 8.88445 2.30112 9.1719C2.36911 9.45935 2.5009 9.72782 2.68674 9.95742C2.87257 10.187 3.10769 10.3718 3.37467 10.4982C3.64164 10.6246 3.93364 10.6893 4.22901 10.6875ZM3.94776 8.65125C4.78167 4.68141 9.7387 1.6875 15.4692 1.6875C21.1996 1.6875 26.1567 4.68141 27.0004 8.65125C27.0108 8.69336 27.0114 8.73732 27.002 8.77968C26.9926 8.82204 26.9736 8.86165 26.9463 8.89543C26.9191 8.9292 26.8844 8.95621 26.845 8.97435C26.8056 8.9925 26.7625 9.00127 26.7192 9H4.22901C4.18564 9.00127 4.14257 8.9925 4.10316 8.97435C4.06375 8.95621 4.02907 8.9292 4.00183 8.89543C3.9746 8.86165 3.95554 8.82204 3.94616 8.77968C3.93678 8.73732 3.93733 8.69336 3.94776 8.65125ZM29.8129 18.0506L23.9207 20.1909L18.5953 18.0605C18.394 17.9799 18.1694 17.9799 17.9681 18.0605L12.6567 20.1853L7.34526 18.0605C7.15267 17.9833 6.9384 17.9798 6.74339 18.0506L0.555886 20.3006C0.369325 20.3683 0.212605 20.4996 0.113276 20.6715C0.0139465 20.8433 -0.0216336 21.0446 0.0127903 21.2401C0.0472142 21.4356 0.149438 21.6126 0.301493 21.7402C0.453547 21.8677 0.645698 21.9376 0.844167 21.9375C0.942449 21.9372 1.03996 21.9201 1.13245 21.8869L3.38245 21.0712V22.2188C3.38245 23.636 3.94545 24.9952 4.9476 25.9974C5.94974 26.9995 7.30895 27.5625 8.7262 27.5625H22.2262C23.6434 27.5625 25.0027 26.9995 26.0048 25.9974C27.0069 24.9952 27.5699 23.636 27.5699 22.2188V20.662L30.3895 19.6369C30.5998 19.5604 30.7712 19.4035 30.8659 19.2007C30.9605 18.9979 30.9708 18.7658 30.8943 18.5555C30.8179 18.3451 30.661 18.1738 30.4582 18.0791C30.2554 17.9844 30.0233 17.9742 29.8129 18.0506ZM25.8754 22.2188C25.8754 23.1884 25.4902 24.1184 24.8045 24.8041C24.1188 25.4898 23.1889 25.875 22.2192 25.875H8.71917C7.74947 25.875 6.81949 25.4898 6.13381 24.8041C5.44813 24.1184 5.06292 23.1884 5.06292 22.2188V20.4581L7.01761 19.7466L12.3431 21.877C12.5444 21.9576 12.769 21.9576 12.9703 21.877L18.2817 19.7522L23.5931 21.877C23.7857 21.9542 23.9999 21.9577 24.1949 21.8869L25.8754 21.2752V22.2188ZM0.000417266 14.3438C0.000417266 14.12 0.089312 13.9054 0.247546 13.7471C0.40578 13.5889 0.620391 13.5 0.844167 13.5H30.0942C30.3179 13.5 30.5326 13.5889 30.6908 13.7471C30.849 13.9054 30.9379 14.12 30.9379 14.3438C30.9379 14.5675 30.849 14.7821 30.6908 14.9404C30.5326 15.0986 30.3179 15.1875 30.0942 15.1875H0.844167C0.620391 15.1875 0.40578 15.0986 0.247546 14.9404C0.089312 14.7821 0.000417266 14.5675 0.000417266 14.3438Z" fill="#212427"/>
</g>
</svg>
