<svg width="51" height="51" viewBox="0 0 51 51" fill="none" xmlns="http://www.w3.org/2000/svg">
<g clip-path="url(#clip0_4_40)">
<path d="M20.9742 42.7708C21.1954 42.9064 21.4414 42.9966 21.6978 43.0362C21.9542 43.0758 22.2159 43.064 22.4677 43.0015C27.4381 41.778 31.9789 39.2179 35.5984 35.5984C39.2178 31.9789 41.778 27.4381 43.0015 22.4678C43.1245 21.9615 43.0419 21.427 42.7716 20.9816C42.5013 20.5361 42.0655 20.2159 41.5596 20.0912L16.3752 13.9987C16.0456 13.9165 15.7003 13.9211 15.3729 14.0119C15.0455 14.1027 14.7472 14.2767 14.5069 14.5169C14.2667 14.7571 14.0927 15.0555 14.0019 15.3828C13.9111 15.7102 13.9066 16.0555 13.9887 16.3852L20.0862 41.5646C20.147 41.8144 20.2568 42.0497 20.4092 42.2567C20.5617 42.4638 20.7537 42.6385 20.9742 42.7708ZM33.0856 19.775C33.1032 20.3378 32.9905 20.897 32.7564 21.4091C32.5223 21.9211 32.1732 22.3722 31.7361 22.7272C31.299 23.0821 30.7859 23.3313 30.2367 23.4554C29.6875 23.5794 29.1171 23.575 28.5699 23.4423C28.0227 23.3097 27.5135 23.0525 27.082 22.6908C26.6506 22.329 26.3085 21.8725 26.0825 21.3568C25.8564 20.8412 25.7525 20.2803 25.7789 19.7178C25.8052 19.1554 25.9611 18.6067 26.2344 18.1144L33.0856 19.775ZM17.0444 21.8314C17.9352 21.7209 18.8356 21.9419 19.5739 22.4524C20.3122 22.9629 20.837 23.7271 21.0482 24.5995C21.2594 25.472 21.1423 26.3916 20.7191 27.1833C20.296 27.9749 19.5965 28.5832 18.7538 28.8924L17.0444 21.8314ZM19.1525 30.542C19.9556 30.282 20.6849 29.8336 21.2795 29.2344C22.0781 28.4356 22.603 27.4042 22.7788 26.2884C22.9546 25.1725 22.7724 24.0297 22.2582 23.0239C21.744 22.0182 20.9243 21.2012 19.9168 20.6904C18.9093 20.1796 17.7659 20.0011 16.6507 20.1807L15.6324 15.9805C15.6198 15.9329 15.6199 15.8828 15.6327 15.8352C15.6455 15.7876 15.6705 15.7442 15.7054 15.7094C15.7402 15.6745 15.7836 15.6495 15.8312 15.6367C15.8788 15.6239 15.9289 15.6238 15.9765 15.6364L24.5529 17.7097C24.2329 18.4255 24.0743 19.203 24.0884 19.987C24.1025 20.7711 24.289 21.5423 24.6346 22.2462C24.9802 22.9501 25.4765 23.5692 26.0882 24.0598C26.6999 24.5503 27.4121 24.9003 28.1743 25.0847C28.9364 25.2691 29.7298 25.2836 30.4981 25.1271C31.2665 24.9705 31.9909 24.6468 32.6202 24.1789C33.2494 23.7109 33.7679 23.1102 34.1389 22.4195C34.5099 21.7287 34.7244 20.9647 34.7671 20.1817L37.0263 20.7286C36.1173 24.7029 34.106 28.3403 31.2231 31.2232C28.3403 34.106 24.7029 36.1174 20.7286 37.0263L19.1525 30.542ZM21.7239 41.1659L21.1253 38.666C25.4012 37.6845 29.3143 35.5186 32.4164 32.4164C35.5186 29.3143 37.6844 25.4012 38.666 21.1254L41.1609 21.7289C41.196 21.7369 41.229 21.752 41.2581 21.7732C41.2872 21.7944 41.3116 21.8213 41.3299 21.8522C41.3491 21.8845 41.3617 21.9204 41.3668 21.9576C41.3719 21.9948 41.3695 22.0327 41.3597 22.069C40.2095 26.7381 37.8041 31.0036 34.4039 34.4039C31.0036 37.8041 26.7381 40.2096 22.069 41.3598C22.0329 41.369 21.9953 41.3709 21.9584 41.3654C21.9215 41.36 21.8861 41.3472 21.8542 41.328C21.8231 41.3101 21.7959 41.286 21.7744 41.2573C21.7528 41.2286 21.7374 41.1958 21.7289 41.1609L21.7239 41.1659Z" fill="#212427"/>
</g>
<defs>
<clipPath id="clip0_4_40">
<rect width="36" height="36" fill="white" transform="translate(50.9117 25.4558) rotate(135)"/>
</clipPath>
</defs>
</svg>
